<?xml version="1.0" encoding="utf-8"?>
<!-- Generator: Adobe Illustrator 26.5.0, SVG Export Plug-In . SVG Version: 6.00 Build 0)  -->
<svg version="1.0" id="Capa_1" xmlns="http://www.w3.org/2000/svg" xmlns:xlink="http://www.w3.org/1999/xlink" x="0px" y="0px"
	 viewBox="0 0 308.39 34.78" enable-background="new 0 0 308.39 34.78" xml:space="preserve">
<g>
	<g>
		<path fill="#262F36" d="M0,27.01V1.11h3.92v11.03h13.75V1.11h3.92v25.9h-3.92V15.87H3.92v11.14H0z"/>
		<path fill="#262F36" d="M36.11,27.45c-1.88,0-3.51-0.42-4.89-1.25s-2.46-1.98-3.21-3.44c-0.75-1.46-1.13-3.13-1.13-5
			c0-1.89,0.38-3.56,1.13-5.01c0.75-1.46,1.82-2.6,3.21-3.43s3.02-1.25,4.89-1.25h0.41c1.89,0,3.52,0.42,4.9,1.25
			c1.38,0.83,2.45,1.98,3.2,3.43c0.75,1.46,1.13,3.13,1.13,5.01c0,1.88-0.38,3.54-1.13,5c-0.75,1.46-1.82,2.61-3.2,3.44
			c-1.38,0.83-3.02,1.25-4.9,1.25H36.11z M36.13,24.01h0.37c1.69,0,3.02-0.57,3.98-1.7c0.96-1.13,1.44-2.65,1.44-4.55
			c0-1.91-0.48-3.43-1.44-4.56c-0.96-1.13-2.29-1.69-3.98-1.69h-0.37c-1.68,0-3,0.56-3.97,1.69c-0.97,1.13-1.45,2.65-1.45,4.56
			c0,1.9,0.48,3.42,1.45,4.55C33.13,23.45,34.45,24.01,36.13,24.01z"/>
		<path fill="#262F36" d="M54.59,27.01c-1.33-3-2.6-6.05-3.8-9.17c-1.2-3.11-2.32-6.23-3.34-9.33h4.18
			c0.75,2.55,1.58,5.11,2.47,7.68c0.89,2.57,1.84,5.11,2.84,7.62c1-2.52,1.95-5.06,2.84-7.62c0.89-2.57,1.72-5.12,2.47-7.68h4.03
			c-1.02,3.11-2.14,6.22-3.34,9.33c-1.2,3.12-2.47,6.17-3.8,9.17H54.59z"/>
		<path fill="#262F36" d="M76.9,27.45c-1.78,0-3.33-0.41-4.67-1.22c-1.34-0.81-2.38-1.95-3.13-3.4s-1.12-3.14-1.12-5.05
			c0-1.91,0.37-3.6,1.12-5.06c0.75-1.46,1.79-2.6,3.13-3.42c1.34-0.82,2.9-1.23,4.67-1.23h0.41c1.62,0,3.04,0.4,4.26,1.19
			c1.23,0.8,2.19,1.94,2.88,3.44s1.04,3.3,1.04,5.41v1.13H71.82c0.22,1.52,0.79,2.71,1.71,3.58c0.92,0.87,2.12,1.3,3.6,1.3h0.37
			c0.89,0,1.74-0.18,2.55-0.55c0.81-0.36,1.5-0.85,2.05-1.47l2.28,2.41c-0.84,0.9-1.87,1.62-3.1,2.15s-2.55,0.8-3.97,0.8H76.9z
			 M76.79,11.4c-1.32,0-2.42,0.43-3.3,1.3c-0.88,0.87-1.44,2.06-1.67,3.56h9.95c-0.11-1.37-0.56-2.52-1.34-3.46
			c-0.78-0.94-1.87-1.41-3.27-1.41H76.79z"/>
		<path fill="#262F36" d="M89.82,27.01V8.51h3.7v2.81c1.23-2.17,2.93-3.26,5.09-3.26c0.59,0,1.13,0.05,1.61,0.15v3.74
			c-0.3-0.04-0.61-0.07-0.95-0.09c-0.34-0.02-0.67-0.04-0.99-0.04c-1.22,0-2.22,0.35-3,1.05c-0.78,0.7-1.36,1.66-1.76,2.89v11.25
			H89.82z"/>
		<path fill="#262F36" d="M120.27,27.25c-2.2,0-3.87-0.55-5.01-1.66c-1.15-1.11-1.72-2.82-1.72-5.12v-8.73h-3.63V8.51h3.63V3h3.7
			v5.51h6.23v3.22h-6.23v8.23c0,1.46,0.3,2.47,0.91,3.03c0.6,0.57,1.5,0.85,2.68,0.85c0.57,0,1.08-0.02,1.53-0.07
			c0.45-0.05,0.92-0.11,1.4-0.18v3.24c-0.49,0.12-1.05,0.22-1.67,0.3C121.46,27.21,120.86,27.25,120.27,27.25z"/>
		<path fill="#262F36" d="M135.77,27.45c-1.88,0-3.51-0.42-4.89-1.25s-2.46-1.98-3.21-3.44c-0.75-1.46-1.13-3.13-1.13-5
			c0-1.89,0.38-3.56,1.13-5.01c0.75-1.46,1.82-2.6,3.21-3.43s3.02-1.25,4.89-1.25h0.41c1.89,0,3.52,0.42,4.9,1.25
			c1.38,0.83,2.45,1.98,3.2,3.43c0.75,1.46,1.13,3.13,1.13,5.01c0,1.88-0.38,3.54-1.13,5c-0.75,1.46-1.82,2.61-3.2,3.44
			c-1.38,0.83-3.02,1.25-4.9,1.25H135.77z M135.79,24.01h0.37c1.69,0,3.02-0.57,3.98-1.7c0.96-1.13,1.44-2.65,1.44-4.55
			c0-1.91-0.48-3.43-1.44-4.56c-0.96-1.13-2.29-1.69-3.98-1.69h-0.37c-1.68,0-3,0.56-3.97,1.69c-0.97,1.13-1.45,2.65-1.45,4.56
			c0,1.9,0.48,3.42,1.45,4.55C132.79,23.45,134.11,24.01,135.79,24.01z"/>
		<path fill="#262F36" d="M165.87,27.45c-1.78,0-3.33-0.41-4.67-1.22c-1.34-0.81-2.38-1.95-3.13-3.4s-1.12-3.14-1.12-5.05
			c0-1.91,0.37-3.6,1.12-5.06c0.75-1.46,1.79-2.6,3.13-3.42c1.34-0.82,2.9-1.23,4.67-1.23h0.41c1.62,0,3.04,0.4,4.26,1.19
			c1.23,0.8,2.19,1.94,2.88,3.44s1.04,3.3,1.04,5.41v1.13h-13.67c0.22,1.52,0.79,2.71,1.71,3.58c0.92,0.87,2.12,1.3,3.6,1.3h0.37
			c0.89,0,1.74-0.18,2.55-0.55c0.81-0.36,1.5-0.85,2.05-1.47l2.28,2.41c-0.84,0.9-1.87,1.62-3.1,2.15s-2.55,0.8-3.97,0.8H165.87z
			 M165.76,11.4c-1.32,0-2.42,0.43-3.3,1.3c-0.88,0.87-1.44,2.06-1.67,3.56h9.95c-0.11-1.37-0.56-2.52-1.34-3.46
			c-0.78-0.94-1.87-1.41-3.27-1.41H165.76z"/>
		<path fill="#262F36" d="M175.43,27.01c0.97-1.54,2.05-3.11,3.22-4.71c1.17-1.6,2.36-3.14,3.55-4.62
			c-1.16-1.48-2.32-3.01-3.47-4.58c-1.15-1.57-2.2-3.1-3.15-4.6h4.4c0.65,1.07,1.39,2.21,2.21,3.41c0.82,1.2,1.66,2.37,2.51,3.49
			c0.83-1.12,1.64-2.28,2.45-3.48c0.81-1.2,1.53-2.34,2.16-3.42h4.24c-0.96,1.52-2.02,3.06-3.17,4.63
			c-1.15,1.57-2.32,3.09-3.49,4.56c1.18,1.49,2.36,3.04,3.52,4.63c1.17,1.6,2.24,3.15,3.21,4.67h-4.4c-0.67-1.1-1.42-2.26-2.27-3.49
			c-0.85-1.23-1.7-2.41-2.56-3.56c-0.85,1.15-1.69,2.33-2.52,3.55s-1.56,2.39-2.2,3.5H175.43z"/>
		<path fill="#262F36" d="M197.01,34.78V8.51h3.7v2.9c0.64-1.11,1.48-1.95,2.52-2.51s2.19-0.84,3.46-0.84h0.41
			c1.64,0,3.07,0.42,4.3,1.25c1.23,0.83,2.18,1.98,2.86,3.44c0.68,1.46,1.02,3.13,1.02,5c0,1.88-0.34,3.54-1.02,5
			c-0.68,1.46-1.63,2.61-2.86,3.44c-1.23,0.83-2.66,1.25-4.3,1.25h-0.41c-1.22,0-2.35-0.26-3.39-0.79c-1.04-0.52-1.9-1.3-2.58-2.34
			v10.45H197.01z M205.79,24.03h0.37c1.62,0,2.9-0.54,3.85-1.63c0.95-1.08,1.42-2.63,1.42-4.64c0-2.01-0.47-3.56-1.42-4.64
			c-0.95-1.08-2.23-1.63-3.85-1.63h-0.37c-1.1,0-2.09,0.33-2.97,0.98c-0.88,0.65-1.59,1.55-2.12,2.68v5.22
			c0.53,1.13,1.24,2.03,2.12,2.68C203.71,23.71,204.7,24.03,205.79,24.03z"/>
		<path fill="#262F36" d="M224.72,27.38c-1.95,0-3.46-0.5-4.54-1.51c-1.08-1-1.62-2.33-1.62-3.97c0-1.63,0.61-2.99,1.82-4.09
			s3.15-1.65,5.82-1.65h5.03v-0.06c0-3.11-1.43-4.66-4.29-4.66c-1.2,0-2.21,0.22-3.03,0.65c-0.82,0.43-1.48,1.04-1.99,1.81
			l-2.53-2.05c0.79-1.22,1.83-2.16,3.12-2.81c1.29-0.65,2.75-0.98,4.39-0.98h0.41c2.27,0,4.09,0.65,5.48,1.96s2.07,3.26,2.07,5.86
			v11.12h-3.55v-3.02c-0.72,1.09-1.63,1.92-2.76,2.51C227.43,27.09,226.15,27.38,224.72,27.38z M225.53,24.09
			c1.43,0,2.62-0.32,3.57-0.97c0.95-0.65,1.66-1.53,2.13-2.64v-1.41h-4.88c-1.46,0-2.5,0.23-3.12,0.69
			c-0.62,0.46-0.93,1.09-0.93,1.88C222.29,23.27,223.37,24.09,225.53,24.09z"/>
		<path fill="#262F36" d="M239.98,27.01V8.51h3.7v3.09c0.68-1.1,1.53-1.96,2.54-2.59s2.2-0.94,3.54-0.94h0.41
			c2.05,0,3.65,0.72,4.82,2.16c1.17,1.44,1.75,3.47,1.75,6.09v10.69h-3.7V16.76c0-3.5-1.27-5.25-3.81-5.25h-0.37
			c-1.26,0-2.33,0.39-3.21,1.17s-1.54,1.76-1.97,2.94v11.4H239.98z"/>
		<path fill="#262F36" d="M269.03,27.45c-1.64,0-3.07-0.42-4.3-1.25c-1.23-0.83-2.18-1.98-2.86-3.44c-0.68-1.46-1.02-3.13-1.02-5
			c0-1.87,0.34-3.54,1.02-5c0.68-1.46,1.63-2.61,2.86-3.44c1.23-0.83,2.66-1.25,4.3-1.25h0.41c1.22,0,2.35,0.26,3.39,0.79
			c1.04,0.52,1.9,1.3,2.58,2.34V0h3.7v27.01h-3.7v-2.9c-0.64,1.11-1.48,1.95-2.52,2.51c-1.04,0.56-2.19,0.84-3.46,0.84H269.03z
			 M269.95,24.03h0.37c1.1,0,2.09-0.33,2.97-0.98c0.88-0.65,1.59-1.55,2.12-2.68v-5.22c-0.53-1.13-1.24-2.03-2.12-2.68
			c-0.88-0.65-1.87-0.98-2.97-0.98h-0.37c-1.62,0-2.9,0.54-3.85,1.63c-0.95,1.09-1.42,2.63-1.42,4.64c0,2.01,0.47,3.56,1.42,4.64
			C267.05,23.49,268.34,24.03,269.95,24.03z"/>
	</g>
	<path fill="#262F36" d="M291.1,26.11l8.26-16.21c0.21-0.4,0.79-0.4,0.98,0.01l7.68,16.21c0.17,0.36-0.09,0.78-0.49,0.78h-15.94
		C291.18,26.9,290.92,26.47,291.1,26.11z"/>
</g>
</svg>
