<?xml version="1.0" encoding="utf-8"?>
<!-- Generator: Adobe Illustrator 26.5.0, SVG Export Plug-In . SVG Version: 6.00 Build 0)  -->
<svg version="1.0" id="Capa_1" xmlns="http://www.w3.org/2000/svg" xmlns:xlink="http://www.w3.org/1999/xlink" x="0px" y="0px"
	 viewBox="0 0 191.93 21.97" enable-background="new 0 0 191.93 21.97" xml:space="preserve">
<g>
	<path fill="#1C2B33" d="M0,16.8V0.51h2.91l5.7,9.99l5.67-9.99h2.91V16.8h-2.37V3.91l-5.1,8.98H7.47l-5.1-8.92V16.8H0z"/>
	<path fill="#1C2B33" d="M25.65,17.08c-1.12,0-2.1-0.26-2.94-0.77s-1.5-1.23-1.97-2.14c-0.47-0.92-0.7-1.97-0.7-3.18
		c0-1.2,0.23-2.26,0.7-3.18c0.47-0.92,1.12-1.64,1.97-2.15c0.84-0.52,1.82-0.77,2.94-0.77h0.26c1.02,0,1.91,0.25,2.68,0.75
		s1.37,1.22,1.81,2.16s0.65,2.08,0.65,3.4v0.71h-8.6c0.14,0.95,0.5,1.7,1.08,2.25s1.33,0.82,2.26,0.82h0.23
		c0.56,0,1.09-0.11,1.61-0.34c0.51-0.23,0.94-0.54,1.29-0.92l1.43,1.51c-0.53,0.57-1.18,1.02-1.95,1.35s-1.6,0.5-2.5,0.5
		C25.9,17.08,25.65,17.08,25.65,17.08z M25.58,6.98c-0.83,0-1.52,0.27-2.08,0.82c-0.55,0.55-0.91,1.29-1.05,2.24h6.26
		c-0.07-0.86-0.35-1.59-0.84-2.18s-1.18-0.88-2.05-0.88C25.82,6.98,25.58,6.98,25.58,6.98z"/>
	<path fill="#1C2B33" d="M38.28,17.08c-1.12,0-2.1-0.26-2.94-0.77s-1.5-1.23-1.97-2.14c-0.47-0.92-0.7-1.97-0.7-3.18
		c0-1.2,0.23-2.26,0.7-3.18s1.12-1.64,1.97-2.15c0.84-0.52,1.82-0.77,2.94-0.77h0.26c1.02,0,1.91,0.25,2.68,0.75
		s1.37,1.22,1.81,2.16s0.65,2.08,0.65,3.4v0.71h-8.6c0.14,0.95,0.5,1.7,1.08,2.25s1.33,0.82,2.26,0.82h0.23
		c0.56,0,1.09-0.11,1.61-0.34c0.51-0.23,0.94-0.54,1.29-0.92l1.43,1.51c-0.53,0.57-1.18,1.02-1.95,1.35s-1.6,0.5-2.5,0.5
		C38.53,17.08,38.28,17.08,38.28,17.08z M38.21,6.98c-0.83,0-1.52,0.27-2.08,0.82c-0.55,0.55-0.91,1.29-1.05,2.24h6.26
		c-0.07-0.86-0.35-1.59-0.84-2.18s-1.18-0.88-2.05-0.88C38.45,6.98,38.21,6.98,38.21,6.98z"/>
	<path fill="#1C2B33" d="M51.17,16.95c-1.38,0-2.43-0.35-3.15-1.05s-1.08-1.77-1.08-3.22V7.19h-2.28V5.17h2.28V1.7h2.33v3.47h3.92
		v2.02h-3.92v5.18c0,0.92,0.19,1.55,0.57,1.91s0.94,0.54,1.69,0.54c0.36,0,0.68-0.02,0.96-0.05s0.58-0.07,0.88-0.12v2.04
		c-0.31,0.08-0.66,0.14-1.05,0.19C51.92,16.93,51.54,16.95,51.17,16.95z"/>
	<path fill="#1C2B33" d="M67.3,17.08c-1.6,0-2.98-0.36-4.16-1.09c-1.18-0.72-2.08-1.72-2.72-2.99c-0.64-1.27-0.96-2.72-0.96-4.35
		s0.32-3.08,0.96-4.35s1.55-2.26,2.72-2.99s2.56-1.09,4.16-1.09h0.35c1.61,0,2.99,0.36,4.17,1.09s2.08,1.72,2.72,2.99
		s0.96,2.72,0.96,4.35s-0.32,3.08-0.96,4.35s-1.55,2.27-2.72,2.99c-1.17,0.73-2.56,1.09-4.17,1.09H67.3z M67.32,14.78h0.33
		c1.07,0,2-0.25,2.8-0.76s1.41-1.22,1.84-2.13c0.43-0.92,0.65-1.99,0.65-3.22s-0.22-2.31-0.65-3.23s-1.05-1.63-1.84-2.13
		c-0.79-0.5-1.73-0.76-2.8-0.76h-0.33c-1.07,0-2,0.25-2.79,0.76c-0.79,0.5-1.41,1.22-1.84,2.13c-0.44,0.92-0.66,2-0.66,3.23
		s0.22,2.31,0.66,3.22c0.44,0.92,1.05,1.63,1.84,2.13S66.25,14.78,67.32,14.78z"/>
	<path fill="#1C2B33" d="M77.97,21.69V5.17h2.33V7c0.4-0.7,0.93-1.22,1.58-1.58s1.38-0.53,2.18-0.53h0.26
		c1.03,0,1.93,0.26,2.71,0.79s1.37,1.25,1.8,2.16s0.64,1.97,0.64,3.15s-0.21,2.23-0.64,3.15s-1.03,1.64-1.8,2.16
		c-0.77,0.52-1.67,0.79-2.71,0.79h-0.26c-0.77,0-1.48-0.17-2.13-0.49c-0.66-0.33-1.2-0.82-1.62-1.47v6.57h-2.34V21.69z M83.5,14.93
		h0.23c1.02,0,1.82-0.34,2.42-1.02s0.9-1.66,0.9-2.92s-0.3-2.24-0.9-2.92s-1.4-1.02-2.42-1.02H83.5c-0.69,0-1.31,0.21-1.87,0.62
		c-0.56,0.41-1,0.97-1.33,1.69v3.28c0.33,0.71,0.78,1.28,1.33,1.69S82.81,14.93,83.5,14.93z"/>
	<path fill="#1C2B33" d="M91.77,21.69V5.17h2.33V7c0.4-0.7,0.93-1.22,1.58-1.58s1.38-0.53,2.18-0.53h0.26
		c1.03,0,1.93,0.26,2.71,0.79s1.37,1.25,1.8,2.16s0.64,1.97,0.64,3.15s-0.21,2.23-0.64,3.15s-1.03,1.64-1.8,2.16
		c-0.77,0.52-1.67,0.79-2.71,0.79h-0.26c-0.77,0-1.48-0.17-2.13-0.49c-0.66-0.33-1.2-0.82-1.62-1.47v6.57h-2.34V21.69z M97.3,14.93
		h0.23c1.02,0,1.82-0.34,2.42-1.02s0.9-1.66,0.9-2.92s-0.3-2.24-0.9-2.92s-1.4-1.02-2.42-1.02H97.3c-0.69,0-1.31,0.21-1.87,0.62
		c-0.56,0.41-1,0.97-1.33,1.69v3.28c0.33,0.71,0.78,1.28,1.33,1.69S96.61,14.93,97.3,14.93z"/>
	<path fill="#1C2B33" d="M110.73,17.08c-1.18,0-2.21-0.26-3.08-0.79c-0.87-0.52-1.55-1.25-2.02-2.16c-0.47-0.92-0.71-1.97-0.71-3.15
		c0-1.19,0.24-2.24,0.71-3.15c0.47-0.92,1.15-1.63,2.02-2.16c0.87-0.52,1.9-0.79,3.08-0.79h0.26c1.19,0,2.21,0.26,3.08,0.79
		c0.87,0.52,1.54,1.24,2.01,2.16s0.71,1.97,0.71,3.15s-0.24,2.23-0.71,3.15s-1.14,1.64-2.01,2.16c-0.87,0.52-1.9,0.79-3.08,0.79
		H110.73z M110.75,14.92h0.23c1.06,0,1.9-0.36,2.5-1.07s0.91-1.67,0.91-2.86c0-1.2-0.3-2.16-0.91-2.87s-1.44-1.06-2.5-1.06h-0.23
		c-1.05,0-1.89,0.35-2.5,1.06s-0.91,1.67-0.91,2.87s0.3,2.15,0.91,2.86C108.86,14.56,109.69,14.92,110.75,14.92z"/>
	<path fill="#1C2B33" d="M119.11,16.8V5.17h2.33v1.77c0.78-1.36,1.84-2.05,3.2-2.05c0.37,0,0.71,0.03,1.01,0.09v2.35
		c-0.19-0.02-0.39-0.04-0.6-0.06s-0.42-0.02-0.62-0.02c-0.77,0-1.4,0.22-1.88,0.66c-0.49,0.44-0.86,1.05-1.11,1.81v7.07L119.11,16.8
		L119.11,16.8z"/>
	<path fill="#1C2B33" d="M133.03,16.95c-1.38,0-2.43-0.35-3.15-1.05s-1.08-1.77-1.08-3.22V7.19h-2.28V5.17h2.28V1.7h2.33v3.47h3.92
		v2.02h-3.92v5.18c0,0.92,0.19,1.55,0.57,1.91s0.94,0.54,1.69,0.54c0.36,0,0.68-0.02,0.96-0.05c0.28-0.03,0.58-0.07,0.88-0.12v2.04
		c-0.31,0.08-0.66,0.14-1.05,0.19C133.78,16.93,133.4,16.95,133.03,16.95z"/>
	<path fill="#1C2B33" d="M141.08,17.08c-1.34,0-2.37-0.45-3.07-1.36c-0.71-0.91-1.06-2.18-1.06-3.83V5.17h2.33v6.45
		c0,2.2,0.8,3.3,2.4,3.3h0.23c0.79,0,1.46-0.24,2.02-0.73c0.55-0.49,0.97-1.11,1.24-1.85V5.17h2.33V16.8h-2.33v-1.94
		c-0.43,0.69-0.96,1.23-1.6,1.63c-0.64,0.39-1.38,0.59-2.23,0.59C141.34,17.08,141.08,17.08,141.08,17.08z"/>
	<path fill="#1C2B33" d="M150.44,16.8V5.17h2.33v1.94c0.43-0.69,0.96-1.23,1.6-1.63s1.38-0.59,2.23-0.59h0.26
		c1.29,0,2.3,0.45,3.03,1.36s1.1,2.18,1.1,3.83v6.72h-2.33v-6.45c0-2.2-0.8-3.3-2.4-3.3h-0.23c-0.79,0-1.46,0.24-2.02,0.73
		s-0.97,1.1-1.24,1.85v7.17H150.44z"/>
	<path fill="#1C2B33" d="M164.9,3.09c-0.47,0-0.85-0.15-1.12-0.44s-0.41-0.66-0.41-1.11c0-0.46,0.14-0.83,0.41-1.12
		C164.06,0.14,164.43,0,164.9,0c0.48,0,0.86,0.14,1.13,0.43s0.41,0.66,0.41,1.12c0,0.45-0.14,0.82-0.41,1.11S165.39,3.09,164.9,3.09
		z M163.74,16.8V5.17h2.33V16.8H163.74z"/>
	<path fill="#1C2B33" d="M174.26,16.95c-1.38,0-2.43-0.35-3.15-1.05s-1.08-1.77-1.08-3.22V7.19h-2.28V5.17h2.28V1.7h2.33v3.47h3.92
		v2.02h-3.92v5.18c0,0.92,0.19,1.55,0.57,1.91s0.94,0.54,1.69,0.54c0.36,0,0.68-0.02,0.96-0.05c0.28-0.03,0.58-0.07,0.88-0.12v2.04
		c-0.31,0.08-0.66,0.14-1.05,0.19C175.01,16.93,174.63,16.95,174.26,16.95z"/>
	<path fill="#1C2B33" d="M179.17,21.97c-0.33,0-0.65-0.03-0.94-0.08V19.8c0.25,0.04,0.47,0.06,0.65,0.06c0.81,0,1.48-0.23,1.99-0.69
		c0.51-0.46,0.96-1.14,1.35-2.03c-0.95-1.92-1.85-3.88-2.69-5.89s-1.64-4.03-2.4-6.07h2.7c0.5,1.56,1.03,3.12,1.61,4.67
		c0.58,1.56,1.19,3.09,1.84,4.61l3.18-9.28H189l-4.55,11.99c-0.58,1.54-1.27,2.72-2.07,3.55C181.58,21.55,180.51,21.97,179.17,21.97
		z"/>
</g>
</svg>
