<?xml version="1.0" encoding="utf-8"?>
<!-- Generator: Adobe Illustrator 26.5.0, SVG Export Plug-In . SVG Version: 6.00 Build 0)  -->
<svg version="1.0" id="Capa_1" xmlns="http://www.w3.org/2000/svg" xmlns:xlink="http://www.w3.org/1999/xlink" x="0px" y="0px"
	 viewBox="0 0 258.82 44.96" enable-background="new 0 0 258.82 44.96" xml:space="preserve">
<g id="Capa_2">
	<path fill="#0064E0" d="M236.34,44.96H22.48C10.06,44.96,0,34.9,0,22.48l0,0C0,10.06,10.06,0,22.48,0h213.86
		c12.42,0,22.48,10.06,22.48,22.48l0,0C258.82,34.9,248.76,44.96,236.34,44.96z"/>
</g>
<g>
	<g>
		<path fill="#FFFFFF" d="M29.49,36.56c-2.53,0-4.75-0.56-6.64-1.68s-3.36-2.7-4.4-4.75s-1.56-4.46-1.56-7.23
			c0-2.79,0.52-5.24,1.56-7.36s2.51-3.77,4.4-4.97s4.11-1.79,6.64-1.79h0.58c2.5,0,4.63,0.57,6.4,1.72s3.17,2.68,4.19,4.6l-3.44,2
			c-0.72-1.37-1.68-2.46-2.89-3.28s-2.65-1.23-4.33-1.23h-0.54c-1.59,0-3.01,0.4-4.27,1.21s-2.26,1.97-2.99,3.49
			c-0.74,1.52-1.1,3.36-1.1,5.53c0,2.16,0.37,3.98,1.1,5.46c0.74,1.48,1.73,2.6,2.99,3.36c1.26,0.76,2.68,1.14,4.27,1.14H30
			c1.69,0,3.12-0.37,4.3-1.12s2.14-1.78,2.88-3.1l3.42,2.03c-1.05,1.83-2.45,3.29-4.2,4.37s-3.86,1.62-6.33,1.62h-0.58V36.56z"/>
		<path fill="#FFFFFF" d="M53.38,36.56c-1.94,0-3.64-0.43-5.08-1.29s-2.55-2.05-3.33-3.57c-0.78-1.52-1.17-3.25-1.17-5.19
			c0-1.96,0.39-3.69,1.17-5.2c0.78-1.51,1.89-2.7,3.33-3.56c1.44-0.86,3.13-1.3,5.08-1.3h0.42c1.96,0,3.65,0.43,5.09,1.3
			c1.43,0.86,2.54,2.05,3.32,3.56c0.78,1.51,1.17,3.24,1.17,5.2c0,1.94-0.39,3.68-1.17,5.19c-0.78,1.52-1.89,2.71-3.32,3.57
			s-3.13,1.29-5.09,1.29C53.8,36.56,53.38,36.56,53.38,36.56z M53.4,32.99h0.38c1.75,0,3.13-0.59,4.13-1.77s1.5-2.75,1.5-4.72
			c0-1.98-0.5-3.56-1.5-4.73c-1-1.17-2.37-1.76-4.13-1.76H53.4c-1.74,0-3.11,0.59-4.12,1.76c-1,1.17-1.51,2.75-1.51,4.73
			c0,1.97,0.5,3.54,1.51,4.72S51.66,32.99,53.4,32.99z"/>
		<path fill="#FFFFFF" d="M67.96,36.1V16.9h3.84v3.21c0.7-1.14,1.58-2.03,2.64-2.69c1.06-0.65,2.28-0.98,3.68-0.98h0.42
			c2.12,0,3.79,0.75,5,2.25s1.81,3.6,1.81,6.31v11.09h-3.84V25.46c0-3.63-1.32-5.45-3.95-5.45h-0.38c-1.31,0-2.42,0.4-3.33,1.21
			c-0.92,0.81-1.6,1.82-2.04,3.05v11.82h-3.85V36.1z"/>
		<path fill="#FFFFFF" d="M90.67,36.1V16.9h3.84v3.21c0.7-1.14,1.58-2.03,2.64-2.69c1.06-0.65,2.28-0.98,3.68-0.98h0.42
			c2.12,0,3.79,0.75,5,2.25s1.81,3.6,1.81,6.31v11.09h-3.84V25.46c0-3.63-1.32-5.45-3.95-5.45h-0.38c-1.31,0-2.42,0.4-3.33,1.21
			c-0.92,0.81-1.6,1.82-2.04,3.05v11.82h-3.85V36.1z"/>
		<path fill="#FFFFFF" d="M121.57,36.56c-1.84,0-3.46-0.42-4.85-1.27s-2.47-2.02-3.24-3.53c-0.77-1.51-1.16-3.26-1.16-5.24
			s0.39-3.73,1.16-5.25c0.77-1.52,1.85-2.7,3.24-3.55c1.39-0.85,3-1.28,4.85-1.28h0.42c1.68,0,3.15,0.41,4.42,1.24
			c1.27,0.83,2.27,2.02,2.98,3.57c0.72,1.55,1.08,3.43,1.08,5.61v1.17h-14.18c0.23,1.57,0.82,2.81,1.78,3.71
			c0.95,0.9,2.2,1.35,3.73,1.35h0.38c0.92,0,1.8-0.19,2.65-0.57c0.84-0.38,1.55-0.89,2.13-1.53l2.36,2.5
			c-0.87,0.93-1.94,1.68-3.21,2.23s-2.65,0.83-4.12,0.83h-0.42V36.56z M121.45,19.9c-1.37,0-2.51,0.45-3.43,1.35
			c-0.91,0.9-1.49,2.13-1.74,3.69h10.33c-0.12-1.42-0.58-2.62-1.39-3.59s-1.94-1.46-3.39-1.46L121.45,19.9L121.45,19.9z"/>
		<path fill="#FFFFFF" d="M143.33,36.56c-1.84,0-3.47-0.4-4.89-1.21s-2.53-1.96-3.33-3.46s-1.2-3.29-1.2-5.36
			c0-2.08,0.4-3.88,1.19-5.38c0.79-1.5,1.9-2.66,3.31-3.47c1.41-0.81,3.05-1.22,4.92-1.22h0.42c1.48,0,2.89,0.38,4.21,1.14
			c1.32,0.76,2.4,1.81,3.21,3.14l-2.97,2.07c-0.55-0.87-1.21-1.55-1.98-2.04c-0.77-0.49-1.64-0.74-2.61-0.74h-0.38
			c-1.66,0-2.97,0.59-3.92,1.76c-0.95,1.17-1.43,2.75-1.43,4.73c0,1.97,0.48,3.54,1.43,4.72c0.95,1.18,2.26,1.77,3.92,1.77h0.38
			c0.97,0,1.87-0.22,2.69-0.65s1.52-1.02,2.11-1.75l2.76,2.34c-0.86,1.13-1.94,2.01-3.23,2.66c-1.3,0.65-2.7,0.97-4.19,0.97h-0.42
			V36.56z"/>
		<path fill="#FFFFFF" d="M164.02,36.35c-2.28,0-4.01-0.58-5.2-1.73c-1.19-1.15-1.79-2.92-1.79-5.32v-9.06h-3.76V16.9h3.76v-5.72
			h3.84v5.72h6.47v3.34h-6.47v8.54c0,1.51,0.31,2.56,0.94,3.15s1.55,0.88,2.78,0.88c0.59,0,1.12-0.03,1.58-0.08
			c0.47-0.05,0.95-0.12,1.45-0.19v3.36c-0.51,0.13-1.09,0.23-1.73,0.32S164.63,36.35,164.02,36.35z"/>
		<path fill="#FFFFFF" d="M173.5,13.48c-0.78,0-1.4-0.24-1.85-0.72c-0.46-0.48-0.68-1.09-0.68-1.83c0-0.75,0.23-1.37,0.68-1.84
			s1.07-0.71,1.85-0.71c0.79,0,1.41,0.24,1.86,0.71s0.67,1.09,0.67,1.84c0,0.74-0.22,1.35-0.67,1.83
			C174.91,13.24,174.29,13.48,173.5,13.48z M171.58,36.1V16.9h3.84v19.19L171.58,36.1L171.58,36.1z"/>
		<path fill="#FFFFFF" d="M189.58,36.56c-1.94,0-3.64-0.43-5.08-1.29s-2.55-2.05-3.33-3.57S180,28.44,180,26.5
			c0-1.96,0.39-3.69,1.17-5.2c0.78-1.51,1.89-2.7,3.33-3.56s3.13-1.3,5.08-1.3H190c1.96,0,3.65,0.43,5.09,1.3
			c1.43,0.86,2.54,2.05,3.32,3.56c0.78,1.51,1.17,3.24,1.17,5.2c0,1.94-0.39,3.68-1.17,5.19c-0.78,1.52-1.89,2.71-3.32,3.57
			c-1.43,0.86-3.13,1.29-5.09,1.29C190,36.56,189.58,36.56,189.58,36.56z M189.6,32.99h0.38c1.75,0,3.13-0.59,4.13-1.77
			s1.5-2.75,1.5-4.72c0-1.98-0.5-3.56-1.5-4.73c-1-1.17-2.37-1.76-4.13-1.76h-0.38c-1.74,0-3.11,0.59-4.12,1.76
			c-1,1.17-1.51,2.75-1.51,4.73c0,1.97,0.5,3.54,1.51,4.72S187.86,32.99,189.6,32.99z"/>
		<path fill="#FFFFFF" d="M204.17,36.1V16.9h3.84v3.21c0.7-1.14,1.58-2.03,2.64-2.69c1.06-0.65,2.28-0.98,3.68-0.98h0.42
			c2.12,0,3.79,0.75,5,2.25s1.81,3.6,1.81,6.31v11.09h-3.84V25.46c0-3.63-1.32-5.45-3.95-5.45h-0.38c-1.31,0-2.42,0.4-3.33,1.21
			c-0.92,0.81-1.6,1.82-2.04,3.05v11.82h-3.85V36.1z"/>
		<path fill="#FFFFFF" d="M233.8,36.56c-1.93,0-3.59-0.31-4.99-0.94s-2.56-1.56-3.49-2.8l2.61-2.4c1.38,1.86,3.33,2.78,5.83,2.78
			h0.38c1.27,0,2.25-0.19,2.95-0.58c0.7-0.39,1.05-0.96,1.05-1.7c0-0.61-0.23-1.12-0.68-1.52c-0.45-0.4-1.28-0.72-2.49-0.96
			l-3.28-0.69c-3.81-0.79-5.72-2.57-5.72-5.34c0-1.79,0.7-3.23,2.09-4.33c1.39-1.1,3.24-1.64,5.55-1.64h0.42
			c3.28,0,5.79,1.22,7.54,3.65l-2.61,2.17c-0.67-0.88-1.41-1.51-2.24-1.89c-0.83-0.38-1.74-0.57-2.73-0.57h-0.38
			c-1.14,0-2.06,0.2-2.77,0.59c-0.71,0.4-1.07,0.96-1.07,1.69c0,0.55,0.22,0.99,0.66,1.31c0.44,0.33,1.19,0.6,2.24,0.83l3.84,0.83
			c1.65,0.36,2.97,1,3.95,1.91c0.98,0.92,1.48,2.15,1.48,3.71c0,1.7-0.66,3.11-1.97,4.21c-1.31,1.11-3.23,1.66-5.75,1.66h-0.42
			V36.56z"/>
	</g>
</g>
</svg>
