<?xml version="1.0" encoding="utf-8"?>
<!-- Generator: Adobe Illustrator 26.5.0, SVG Export Plug-In . SVG Version: 6.00 Build 0)  -->
<svg version="1.0" id="Capa_1" xmlns="http://www.w3.org/2000/svg" xmlns:xlink="http://www.w3.org/1999/xlink" x="0px" y="0px"
	 viewBox="0 0 437.52 79.54" enable-background="new 0 0 437.52 79.54" xml:space="preserve">
<g>
	<path fill="#262F36" d="M13.88,28.48c-2.53,0-4.75-0.56-6.64-1.68s-3.36-2.7-4.4-4.75C1.79,20,1.27,17.59,1.27,14.82
		c0-2.79,0.52-5.24,1.56-7.36c1.04-2.12,2.51-3.77,4.4-4.97s4.11-1.79,6.64-1.79h0.58c2.5,0,4.63,0.57,6.4,1.72
		c1.77,1.15,3.17,2.68,4.19,4.6l-3.44,2c-0.72-1.37-1.68-2.46-2.89-3.28s-2.65-1.23-4.33-1.23h-0.54c-1.59,0-3.01,0.4-4.27,1.21
		C8.33,6.51,7.33,7.67,6.59,9.19c-0.74,1.52-1.1,3.36-1.1,5.53c0,2.16,0.37,3.98,1.1,5.46c0.74,1.48,1.73,2.6,2.99,3.36
		c1.26,0.76,2.68,1.14,4.27,1.14h0.54c1.69,0,3.12-0.37,4.3-1.12c1.18-0.75,2.14-1.78,2.88-3.1l3.42,2.03
		c-1.05,1.83-2.45,3.29-4.2,4.37s-3.86,1.62-6.33,1.62H13.88z"/>
	<path fill="#262F36" d="M37.77,28.48c-1.94,0-3.64-0.43-5.08-1.3s-2.55-2.05-3.33-3.57c-0.78-1.52-1.17-3.25-1.17-5.19
		c0-1.96,0.39-3.69,1.17-5.2c0.78-1.51,1.89-2.7,3.33-3.56c1.44-0.86,3.13-1.3,5.08-1.3h0.42c1.96,0,3.65,0.43,5.09,1.3
		c1.43,0.86,2.54,2.05,3.32,3.56s1.17,3.24,1.17,5.2c0,1.94-0.39,3.68-1.17,5.19c-0.78,1.52-1.89,2.71-3.32,3.57
		c-1.43,0.86-3.13,1.3-5.09,1.3H37.77z M37.79,24.91h0.38c1.75,0,3.13-0.59,4.13-1.77c1-1.18,1.5-2.75,1.5-4.72
		c0-1.98-0.5-3.56-1.5-4.73c-1-1.17-2.37-1.76-4.13-1.76h-0.38c-1.74,0-3.11,0.59-4.12,1.76c-1,1.17-1.51,2.75-1.51,4.73
		c0,1.97,0.5,3.54,1.51,4.72C34.68,24.32,36.05,24.91,37.79,24.91z"/>
	<path fill="#262F36" d="M52.35,28.02V8.83h3.84v3.21c0.7-1.14,1.58-2.03,2.64-2.69c1.06-0.65,2.28-0.98,3.68-0.98h0.42
		c2.12,0,3.79,0.75,5,2.25c1.21,1.5,1.81,3.6,1.81,6.31v11.09H65.9V17.39c0-3.63-1.32-5.45-3.95-5.45h-0.38
		c-1.31,0-2.42,0.4-3.33,1.21c-0.92,0.81-1.6,1.82-2.04,3.05v11.82H52.35z"/>
	<path fill="#262F36" d="M75.06,28.02V8.83h3.84v3.21c0.7-1.14,1.58-2.03,2.64-2.69c1.06-0.65,2.28-0.98,3.68-0.98h0.42
		c2.12,0,3.79,0.75,5,2.25c1.21,1.5,1.81,3.6,1.81,6.31v11.09h-3.84V17.39c0-3.63-1.32-5.45-3.95-5.45h-0.38
		c-1.31,0-2.42,0.4-3.33,1.21c-0.92,0.81-1.6,1.82-2.04,3.05v11.82H75.06z"/>
	<path fill="#262F36" d="M105.96,28.48c-1.84,0-3.46-0.42-4.85-1.27c-1.39-0.84-2.47-2.02-3.24-3.53c-0.77-1.51-1.16-3.26-1.16-5.24
		c0-1.98,0.39-3.73,1.16-5.25c0.77-1.52,1.85-2.7,3.24-3.55c1.39-0.85,3-1.28,4.85-1.28h0.42c1.68,0,3.15,0.41,4.42,1.24
		c1.27,0.83,2.27,2.02,2.98,3.57c0.72,1.55,1.08,3.43,1.08,5.61v1.17h-14.18c0.23,1.57,0.82,2.81,1.78,3.71
		c0.95,0.9,2.2,1.35,3.73,1.35h0.38c0.92,0,1.8-0.19,2.65-0.57c0.84-0.38,1.55-0.89,2.13-1.53l2.36,2.5
		c-0.87,0.93-1.94,1.68-3.21,2.23c-1.27,0.55-2.65,0.83-4.12,0.83H105.96z M105.84,11.82c-1.37,0-2.51,0.45-3.43,1.35
		c-0.91,0.9-1.49,2.13-1.74,3.69H111c-0.12-1.42-0.58-2.62-1.39-3.59c-0.81-0.97-1.94-1.46-3.39-1.46H105.84z"/>
	<path fill="#262F36" d="M127.72,28.48c-1.84,0-3.47-0.4-4.89-1.21c-1.42-0.81-2.53-1.96-3.33-3.46c-0.8-1.5-1.2-3.29-1.2-5.36
		c0-2.08,0.4-3.88,1.19-5.38c0.79-1.5,1.9-2.66,3.31-3.47c1.41-0.81,3.05-1.22,4.92-1.22h0.42c1.48,0,2.89,0.38,4.21,1.14
		c1.32,0.76,2.4,1.81,3.21,3.14l-2.97,2.07c-0.55-0.87-1.21-1.55-1.98-2.04c-0.77-0.49-1.64-0.74-2.61-0.74h-0.38
		c-1.66,0-2.97,0.59-3.92,1.76c-0.95,1.17-1.43,2.75-1.43,4.73c0,1.97,0.48,3.54,1.43,4.72c0.95,1.18,2.26,1.77,3.92,1.77h0.38
		c0.97,0,1.87-0.22,2.69-0.65s1.52-1.02,2.11-1.75l2.76,2.34c-0.86,1.13-1.94,2.01-3.23,2.66c-1.3,0.65-2.7,0.97-4.19,0.97H127.72z"
		/>
	<path fill="#262F36" d="M148.41,28.27c-2.28,0-4.01-0.58-5.2-1.73c-1.19-1.15-1.79-2.92-1.79-5.32v-9.06h-3.76V8.83h3.76V3.11h3.84
		v5.72h6.47v3.34h-6.47v8.54c0,1.51,0.31,2.56,0.94,3.15c0.63,0.59,1.55,0.88,2.78,0.88c0.59,0,1.12-0.03,1.58-0.08
		c0.47-0.05,0.95-0.12,1.45-0.19v3.36c-0.51,0.13-1.09,0.23-1.73,0.32C149.65,28.23,149.02,28.27,148.41,28.27z"/>
	<path fill="#262F36" d="M157.89,5.41c-0.78,0-1.4-0.24-1.85-0.72c-0.46-0.48-0.68-1.09-0.68-1.83c0-0.75,0.23-1.37,0.68-1.84
		c0.45-0.47,1.07-0.71,1.85-0.71c0.79,0,1.41,0.24,1.86,0.71c0.45,0.47,0.67,1.09,0.67,1.84c0,0.74-0.22,1.35-0.67,1.83
		C159.3,5.17,158.68,5.41,157.89,5.41z M155.97,28.02V8.83h3.84v19.19H155.97z"/>
	<path fill="#262F36" d="M173.97,28.48c-1.94,0-3.64-0.43-5.08-1.3s-2.55-2.05-3.33-3.57c-0.78-1.52-1.17-3.25-1.17-5.19
		c0-1.96,0.39-3.69,1.17-5.2c0.78-1.51,1.89-2.7,3.33-3.56c1.44-0.86,3.13-1.3,5.08-1.3h0.42c1.96,0,3.65,0.43,5.09,1.3
		c1.43,0.86,2.54,2.05,3.32,3.56s1.17,3.24,1.17,5.2c0,1.94-0.39,3.68-1.17,5.19c-0.78,1.52-1.89,2.71-3.32,3.57
		c-1.43,0.86-3.13,1.3-5.09,1.3H173.97z M173.99,24.91h0.38c1.75,0,3.13-0.59,4.13-1.77c1-1.18,1.5-2.75,1.5-4.72
		c0-1.98-0.5-3.56-1.5-4.73c-1-1.17-2.37-1.76-4.13-1.76h-0.38c-1.74,0-3.11,0.59-4.12,1.76c-1,1.17-1.51,2.75-1.51,4.73
		c0,1.97,0.5,3.54,1.51,4.72C170.88,24.32,172.25,24.91,173.99,24.91z"/>
	<path fill="#262F36" d="M188.56,28.02V8.83h3.84v3.21c0.7-1.14,1.58-2.03,2.64-2.69c1.06-0.65,2.28-0.98,3.68-0.98h0.42
		c2.12,0,3.79,0.75,5,2.25c1.21,1.5,1.81,3.6,1.81,6.31v11.09h-3.84V17.39c0-3.63-1.32-5.45-3.95-5.45h-0.38
		c-1.31,0-2.42,0.4-3.33,1.21c-0.92,0.81-1.6,1.82-2.04,3.05v11.82H188.56z"/>
	<path fill="#262F36" d="M218.19,28.48c-1.93,0-3.59-0.31-4.99-0.94c-1.39-0.63-2.56-1.56-3.49-2.8l2.61-2.4
		c1.38,1.86,3.33,2.78,5.83,2.78h0.38c1.27,0,2.25-0.19,2.95-0.58c0.7-0.39,1.05-0.96,1.05-1.7c0-0.61-0.23-1.12-0.68-1.52
		s-1.28-0.72-2.49-0.96l-3.28-0.69c-3.81-0.79-5.72-2.57-5.72-5.34c0-1.79,0.7-3.23,2.09-4.33s3.24-1.64,5.55-1.64h0.42
		c3.28,0,5.79,1.22,7.54,3.65l-2.61,2.17c-0.67-0.88-1.41-1.51-2.24-1.89c-0.83-0.38-1.74-0.57-2.73-0.57H218
		c-1.14,0-2.06,0.2-2.77,0.59c-0.71,0.4-1.07,0.96-1.07,1.69c0,0.55,0.22,0.99,0.66,1.31c0.44,0.33,1.19,0.6,2.24,0.83l3.84,0.83
		c1.65,0.36,2.97,1,3.95,1.91c0.98,0.92,1.48,2.15,1.48,3.71c0,1.7-0.66,3.11-1.97,4.21c-1.31,1.11-3.23,1.66-5.75,1.66H218.19z"/>
	<path fill="#262F36" d="M247.42,28.48c-1.84,0-3.47-0.4-4.89-1.21c-1.42-0.81-2.53-1.96-3.33-3.46c-0.8-1.5-1.2-3.29-1.2-5.36
		c0-2.08,0.4-3.88,1.19-5.38c0.79-1.5,1.9-2.66,3.31-3.47c1.41-0.81,3.05-1.22,4.92-1.22h0.42c1.48,0,2.89,0.38,4.21,1.14
		c1.32,0.76,2.4,1.81,3.21,3.14l-2.97,2.07c-0.55-0.87-1.21-1.55-1.98-2.04c-0.77-0.49-1.64-0.74-2.61-0.74h-0.38
		c-1.66,0-2.97,0.59-3.92,1.76c-0.95,1.17-1.43,2.75-1.43,4.73c0,1.97,0.48,3.54,1.43,4.72c0.95,1.18,2.26,1.77,3.92,1.77h0.38
		c0.97,0,1.87-0.22,2.69-0.65s1.52-1.02,2.11-1.75l2.76,2.34c-0.86,1.13-1.94,2.01-3.23,2.66c-1.3,0.65-2.7,0.97-4.19,0.97H247.42z"
		/>
	<path fill="#262F36" d="M264.69,28.4c-2.02,0-3.59-0.52-4.71-1.56c-1.12-1.04-1.68-2.42-1.68-4.12c0-1.69,0.63-3.1,1.89-4.24
		c1.26-1.14,3.27-1.71,6.04-1.71h5.22v-0.06c0-3.22-1.48-4.84-4.45-4.84c-1.24,0-2.29,0.22-3.14,0.67s-1.54,1.07-2.06,1.88
		l-2.63-2.13c0.82-1.27,1.9-2.24,3.23-2.92s2.86-1.02,4.56-1.02h0.42c2.35,0,4.25,0.68,5.68,2.03c1.43,1.36,2.15,3.38,2.15,6.08
		v11.53h-3.69v-3.13c-0.74,1.13-1.7,1.99-2.86,2.6C267.5,28.1,266.17,28.4,264.69,28.4z M265.53,24.99c1.48,0,2.72-0.34,3.7-1.01
		c0.98-0.67,1.72-1.58,2.21-2.73v-1.46h-5.07c-1.51,0-2.59,0.24-3.23,0.72s-0.97,1.13-0.97,1.95
		C262.17,24.14,263.29,24.99,265.53,24.99z"/>
	<path fill="#262F36" d="M280.52,28.02V8.83h3.84v3.21c0.7-1.14,1.58-2.03,2.64-2.69c1.06-0.65,2.28-0.98,3.68-0.98h0.42
		c2.12,0,3.79,0.75,5,2.25c1.21,1.5,1.81,3.6,1.81,6.31v11.09h-3.84V17.39c0-3.63-1.32-5.45-3.95-5.45h-0.38
		c-1.31,0-2.42,0.4-3.33,1.21c-0.92,0.81-1.6,1.82-2.04,3.05v11.82H280.52z"/>
	<path fill="#262F36" d="M320.3,28.27c-2.28,0-4.01-0.58-5.2-1.73c-1.19-1.15-1.79-2.92-1.79-5.32v-9.06h-3.76V8.83h3.76V3.11h3.84
		v5.72h6.47v3.34h-6.47v8.54c0,1.51,0.31,2.56,0.94,3.15c0.63,0.59,1.55,0.88,2.78,0.88c0.59,0,1.12-0.03,1.58-0.08
		c0.47-0.05,0.95-0.12,1.45-0.19v3.36c-0.51,0.13-1.09,0.23-1.73,0.32C321.54,28.23,320.92,28.27,320.3,28.27z"/>
	<path fill="#262F36" d="M333.09,28.4c-2.02,0-3.59-0.52-4.71-1.56c-1.12-1.04-1.68-2.42-1.68-4.12c0-1.69,0.63-3.1,1.89-4.24
		c1.26-1.14,3.27-1.71,6.04-1.71h5.22v-0.06c0-3.22-1.48-4.84-4.45-4.84c-1.24,0-2.29,0.22-3.14,0.67s-1.54,1.07-2.06,1.88
		l-2.63-2.13c0.82-1.27,1.9-2.24,3.23-2.92s2.86-1.02,4.56-1.02h0.42c2.35,0,4.25,0.68,5.68,2.03c1.43,1.36,2.15,3.38,2.15,6.08
		v11.53h-3.69v-3.13c-0.74,1.13-1.7,1.99-2.86,2.6C335.89,28.1,334.57,28.4,333.09,28.4z M333.93,24.99c1.48,0,2.72-0.34,3.7-1.01
		c0.98-0.67,1.72-1.58,2.21-2.73v-1.46h-5.07c-1.51,0-2.59,0.24-3.23,0.72s-0.97,1.13-0.97,1.95
		C330.57,24.14,331.69,24.99,333.93,24.99z"/>
	<path fill="#262F36" d="M348.92,28.02V0h3.84v17.04c1.54-1.34,3.03-2.71,4.49-4.11c1.46-1.39,2.81-2.76,4.05-4.11h4.74
		c-1.42,1.56-2.91,3.1-4.48,4.61c-1.57,1.51-3.18,2.97-4.83,4.4c1.69,1.5,3.41,3.12,5.15,4.85c1.75,1.74,3.44,3.52,5.08,5.34h-5.01
		c-1.4-1.54-2.91-3.12-4.53-4.77c-1.62-1.64-3.18-3.11-4.66-4.4v9.17H348.92z"/>
	<path fill="#262F36" d="M376.67,28.48c-1.84,0-3.46-0.42-4.85-1.27c-1.39-0.84-2.47-2.02-3.24-3.53c-0.77-1.51-1.16-3.26-1.16-5.24
		c0-1.98,0.39-3.73,1.16-5.25c0.77-1.52,1.85-2.7,3.24-3.55c1.39-0.85,3-1.28,4.85-1.28h0.42c1.68,0,3.15,0.41,4.42,1.24
		c1.27,0.83,2.27,2.02,2.98,3.57c0.72,1.55,1.08,3.43,1.08,5.61v1.17h-14.18c0.23,1.57,0.82,2.81,1.78,3.71
		c0.95,0.9,2.2,1.35,3.73,1.35h0.38c0.92,0,1.8-0.19,2.65-0.57c0.84-0.38,1.55-0.89,2.13-1.53l2.36,2.5
		c-0.87,0.93-1.94,1.68-3.21,2.23c-1.27,0.55-2.65,0.83-4.12,0.83H376.67z M376.55,11.82c-1.37,0-2.51,0.45-3.43,1.35
		c-0.91,0.9-1.49,2.13-1.74,3.69h10.33c-0.12-1.42-0.58-2.62-1.39-3.59c-0.81-0.97-1.94-1.46-3.39-1.46H376.55z"/>
	<path fill="#262F36" d="M3.36,79.54c-0.55,0-1.07-0.05-1.55-0.13v-3.45c0.41,0.06,0.77,0.1,1.08,0.1c1.34,0,2.44-0.38,3.28-1.14
		c0.84-0.76,1.59-1.88,2.23-3.35c-1.57-3.16-3.05-6.4-4.43-9.71C2.57,58.53,1.25,55.19,0,51.83h4.45c0.82,2.57,1.71,5.14,2.66,7.71
		c0.95,2.57,1.97,5.1,3.04,7.61l5.24-15.31h4.18l-7.5,19.79c-0.96,2.53-2.1,4.49-3.42,5.86C7.34,78.85,5.57,79.54,3.36,79.54z"/>
	<path fill="#262F36" d="M30.82,71.48c-1.94,0-3.64-0.43-5.08-1.3s-2.55-2.05-3.33-3.57c-0.78-1.52-1.17-3.25-1.17-5.19
		c0-1.96,0.39-3.69,1.17-5.2c0.78-1.51,1.89-2.7,3.33-3.56c1.44-0.86,3.13-1.3,5.08-1.3h0.42c1.96,0,3.65,0.43,5.09,1.3
		c1.43,0.86,2.54,2.05,3.32,3.56c0.78,1.51,1.17,3.24,1.17,5.2c0,1.95-0.39,3.67-1.17,5.19c-0.78,1.52-1.89,2.71-3.32,3.57
		c-1.43,0.86-3.13,1.3-5.09,1.3H30.82z M30.84,67.91h0.38c1.75,0,3.13-0.59,4.13-1.77c1-1.18,1.5-2.75,1.5-4.72
		c0-1.98-0.5-3.56-1.5-4.73s-2.37-1.76-4.13-1.76h-0.38c-1.74,0-3.11,0.58-4.12,1.76c-1,1.17-1.51,2.75-1.51,4.73
		c0,1.97,0.5,3.54,1.51,4.72C27.73,67.32,29.1,67.91,30.84,67.91z"/>
	<path fill="#262F36" d="M51.89,71.48c-2.21,0-3.9-0.75-5.07-2.25s-1.75-3.6-1.75-6.31V51.83h3.84v10.63c0,3.63,1.32,5.45,3.95,5.45
		h0.38c1.3,0,2.41-0.4,3.33-1.21c0.92-0.81,1.6-1.82,2.04-3.05V51.83h3.84v19.19h-3.84v-3.21c-0.7,1.14-1.58,2.03-2.64,2.69
		c-1.06,0.65-2.28,0.98-3.67,0.98H51.89z"/>
	<path fill="#262F36" d="M68.11,71.02V51.83h3.84v2.92c1.28-2.25,3.04-3.38,5.28-3.38c0.61,0,1.17,0.05,1.67,0.15v3.88
		c-0.31-0.04-0.64-0.07-0.99-0.1s-0.69-0.04-1.03-0.04c-1.27,0-2.3,0.36-3.11,1.09c-0.81,0.73-1.41,1.73-1.82,2.99v11.67H68.11z"/>
	<path fill="#262F36" d="M91.06,71.02V43h3.84v11.84c0.67-1.15,1.54-2.02,2.61-2.6c1.07-0.58,2.27-0.87,3.59-0.87h0.42
		c1.7,0,3.19,0.43,4.46,1.3c1.27,0.86,2.26,2.05,2.97,3.57c0.7,1.52,1.05,3.25,1.05,5.19c0,1.95-0.35,3.67-1.05,5.19
		c-0.7,1.52-1.69,2.71-2.97,3.57c-1.27,0.86-2.76,1.3-4.46,1.3h-0.42c-1.27,0-2.44-0.27-3.52-0.82c-1.08-0.54-1.97-1.35-2.68-2.43
		v2.78H91.06z M100.18,67.93h0.38c1.68,0,3.01-0.56,3.99-1.69s1.48-2.73,1.48-4.82c0-2.08-0.49-3.69-1.48-4.82
		c-0.99-1.12-2.32-1.69-3.99-1.69h-0.38c-1.14,0-2.17,0.34-3.08,1.02c-0.91,0.68-1.65,1.61-2.2,2.78v5.41
		c0.55,1.18,1.28,2.1,2.2,2.78C98.01,67.59,99.04,67.93,100.18,67.93z"/>
	<path fill="#262F36" d="M121.08,71.48c-2.21,0-3.9-0.75-5.07-2.25s-1.75-3.6-1.75-6.31V51.83h3.84v10.63
		c0,3.63,1.32,5.45,3.95,5.45h0.38c1.3,0,2.41-0.4,3.33-1.21c0.92-0.81,1.6-1.82,2.04-3.05V51.83h3.84v19.19h-3.84v-3.21
		c-0.7,1.14-1.58,2.03-2.64,2.69c-1.06,0.65-2.28,0.98-3.67,0.98H121.08z"/>
	<path fill="#262F36" d="M144.22,71.48c-1.93,0-3.59-0.31-4.99-0.94c-1.39-0.63-2.56-1.56-3.49-2.8l2.61-2.4
		c1.38,1.86,3.33,2.78,5.83,2.78h0.38c1.27,0,2.25-0.2,2.95-0.59c0.7-0.39,1.05-0.96,1.05-1.7c0-0.61-0.23-1.12-0.68-1.52
		c-0.45-0.4-1.28-0.72-2.49-0.96l-3.28-0.69c-3.81-0.79-5.72-2.57-5.72-5.33c0-1.79,0.7-3.23,2.09-4.33
		c1.39-1.09,3.24-1.64,5.55-1.64h0.42c3.28,0,5.79,1.22,7.54,3.65l-2.61,2.17c-0.67-0.88-1.41-1.51-2.24-1.89
		c-0.83-0.38-1.74-0.57-2.73-0.57h-0.38c-1.14,0-2.06,0.2-2.77,0.6s-1.07,0.96-1.07,1.69c0,0.55,0.22,0.99,0.66,1.31
		s1.19,0.6,2.24,0.83l3.84,0.83c1.65,0.36,2.97,1,3.95,1.91c0.98,0.92,1.48,2.15,1.48,3.71c0,1.7-0.66,3.11-1.97,4.21
		s-3.23,1.66-5.75,1.66H144.22z"/>
	<path fill="#262F36" d="M158.56,48.41c-0.78,0-1.4-0.24-1.85-0.72c-0.46-0.48-0.68-1.09-0.68-1.83c0-0.75,0.23-1.37,0.68-1.84
		c0.45-0.47,1.07-0.71,1.85-0.71c0.79,0,1.41,0.24,1.86,0.71c0.45,0.47,0.67,1.09,0.67,1.84c0,0.74-0.22,1.35-0.67,1.83
		C159.97,48.17,159.35,48.41,158.56,48.41z M156.64,71.02V51.83h3.84v19.19H156.64z"/>
	<path fill="#262F36" d="M166.12,71.02V51.83h3.84v3.21c0.7-1.14,1.58-2.03,2.64-2.69c1.06-0.65,2.28-0.98,3.68-0.98h0.42
		c2.12,0,3.79,0.75,5,2.25c1.21,1.5,1.81,3.6,1.81,6.31v11.09h-3.84V60.39c0-3.63-1.32-5.45-3.95-5.45h-0.38
		c-1.31,0-2.42,0.4-3.33,1.21c-0.92,0.81-1.6,1.82-2.04,3.05v11.82H166.12z"/>
	<path fill="#262F36" d="M197.02,71.48c-1.84,0-3.46-0.42-4.85-1.27c-1.39-0.84-2.47-2.02-3.24-3.53c-0.77-1.51-1.16-3.26-1.16-5.24
		s0.39-3.73,1.16-5.25c0.77-1.52,1.85-2.7,3.24-3.55c1.39-0.85,3-1.28,4.85-1.28h0.42c1.68,0,3.15,0.41,4.42,1.24
		c1.27,0.83,2.27,2.01,2.98,3.57s1.08,3.43,1.08,5.61v1.17h-14.18c0.23,1.57,0.82,2.81,1.78,3.71c0.95,0.9,2.2,1.35,3.73,1.35h0.38
		c0.92,0,1.8-0.19,2.65-0.57c0.84-0.38,1.55-0.89,2.13-1.53l2.36,2.5c-0.87,0.93-1.94,1.68-3.21,2.23
		c-1.27,0.55-2.65,0.83-4.12,0.83H197.02z M196.9,54.82c-1.37,0-2.51,0.45-3.43,1.35c-0.91,0.9-1.49,2.13-1.74,3.69h10.33
		c-0.12-1.42-0.58-2.62-1.39-3.59c-0.81-0.97-1.94-1.46-3.39-1.46H196.9z"/>
	<path fill="#262F36" d="M217.34,71.48c-1.93,0-3.59-0.31-4.99-0.94c-1.39-0.63-2.56-1.56-3.49-2.8l2.61-2.4
		c1.38,1.86,3.33,2.78,5.83,2.78h0.38c1.27,0,2.25-0.2,2.95-0.59c0.7-0.39,1.05-0.96,1.05-1.7c0-0.61-0.23-1.12-0.68-1.52
		c-0.45-0.4-1.28-0.72-2.49-0.96l-3.28-0.69c-3.81-0.79-5.72-2.57-5.72-5.33c0-1.79,0.7-3.23,2.09-4.33
		c1.39-1.09,3.24-1.64,5.55-1.64h0.42c3.28,0,5.79,1.22,7.54,3.65l-2.61,2.17c-0.67-0.88-1.41-1.51-2.24-1.89
		c-0.83-0.38-1.74-0.57-2.73-0.57h-0.38c-1.14,0-2.06,0.2-2.77,0.6s-1.07,0.96-1.07,1.69c0,0.55,0.22,0.99,0.66,1.31
		s1.19,0.6,2.24,0.83l3.84,0.83c1.65,0.36,2.97,1,3.95,1.91c0.98,0.92,1.48,2.15,1.48,3.71c0,1.7-0.66,3.11-1.97,4.21
		s-3.23,1.66-5.75,1.66H217.34z"/>
	<path fill="#262F36" d="M236.69,71.48c-1.93,0-3.59-0.31-4.99-0.94c-1.39-0.63-2.56-1.56-3.49-2.8l2.61-2.4
		c1.38,1.86,3.33,2.78,5.83,2.78h0.38c1.27,0,2.25-0.2,2.95-0.59c0.7-0.39,1.05-0.96,1.05-1.7c0-0.61-0.23-1.12-0.68-1.52
		c-0.45-0.4-1.28-0.72-2.49-0.96l-3.28-0.69c-3.81-0.79-5.72-2.57-5.72-5.33c0-1.79,0.7-3.23,2.09-4.33
		c1.39-1.09,3.24-1.64,5.55-1.64h0.42c3.28,0,5.79,1.22,7.54,3.65l-2.61,2.17c-0.67-0.88-1.41-1.51-2.24-1.89
		c-0.83-0.38-1.74-0.57-2.73-0.57h-0.38c-1.14,0-2.06,0.2-2.77,0.6s-1.07,0.96-1.07,1.69c0,0.55,0.22,0.99,0.66,1.31
		s1.19,0.6,2.24,0.83l3.84,0.83c1.65,0.36,2.97,1,3.95,1.91c0.98,0.92,1.48,2.15,1.48,3.71c0,1.7-0.66,3.11-1.97,4.21
		s-3.23,1.66-5.75,1.66H236.69z"/>
	<path fill="#262F36" d="M262.77,71.4c-2.02,0-3.59-0.52-4.71-1.56c-1.12-1.04-1.68-2.41-1.68-4.12c0-1.69,0.63-3.1,1.89-4.24
		c1.26-1.14,3.27-1.71,6.04-1.71h5.22v-0.06c0-3.22-1.48-4.84-4.45-4.84c-1.24,0-2.29,0.22-3.14,0.67
		c-0.85,0.45-1.54,1.08-2.06,1.88l-2.63-2.13c0.82-1.27,1.9-2.24,3.23-2.92s2.86-1.02,4.56-1.02h0.42c2.35,0,4.25,0.68,5.68,2.03
		c1.43,1.36,2.15,3.38,2.15,6.08v11.53h-3.69v-3.13c-0.74,1.13-1.7,1.99-2.86,2.6C265.58,71.1,264.25,71.4,262.77,71.4z
		 M263.61,67.99c1.48,0,2.72-0.34,3.7-1.01c0.98-0.67,1.72-1.58,2.21-2.73v-1.46h-5.07c-1.51,0-2.59,0.24-3.23,0.72
		c-0.65,0.48-0.97,1.13-0.97,1.95C260.25,67.14,261.37,67.99,263.61,67.99z"/>
	<path fill="#262F36" d="M278.6,71.02V51.83h3.84v3.21c0.7-1.14,1.58-2.03,2.64-2.69c1.06-0.65,2.28-0.98,3.68-0.98h0.42
		c2.12,0,3.79,0.75,5,2.25c1.21,1.5,1.81,3.6,1.81,6.31v11.09h-3.84V60.39c0-3.63-1.32-5.45-3.95-5.45h-0.38
		c-1.31,0-2.42,0.4-3.33,1.21c-0.92,0.81-1.6,1.82-2.04,3.05v11.82H278.6z"/>
	<path fill="#262F36" d="M302.61,79.54c-0.55,0-1.07-0.05-1.55-0.13v-3.45c0.41,0.06,0.77,0.1,1.08,0.1c1.34,0,2.44-0.38,3.28-1.14
		c0.84-0.76,1.59-1.88,2.23-3.35c-1.57-3.16-3.05-6.4-4.43-9.71c-1.38-3.31-2.7-6.65-3.95-10.02h4.45c0.82,2.57,1.71,5.14,2.66,7.71
		c0.95,2.57,1.97,5.1,3.04,7.61l5.24-15.31h4.18l-7.5,19.79c-0.96,2.53-2.1,4.49-3.42,5.86C306.59,78.85,304.82,79.54,302.61,79.54z
		"/>
	<path fill="#262F36" d="M326.94,71.02c-1.15-3.08-2.24-6.23-3.25-9.45c-1.02-3.22-1.97-6.46-2.85-9.74h4.22
		c0.63,2.65,1.31,5.3,2.05,7.95s1.52,5.26,2.34,7.85l4.2-14.61h4.07l4.22,14.66c0.82-2.58,1.6-5.21,2.35-7.87
		c0.75-2.66,1.44-5.32,2.06-7.98h4.11c-0.88,3.28-1.83,6.52-2.85,9.74c-1.02,3.22-2.1,6.37-3.25,9.45h-4.82l-3.88-13.51l-3.9,13.51
		H326.94z"/>
	<path fill="#262F36" d="M354.45,71.02V43h3.84v12.03c0.7-1.14,1.58-2.03,2.64-2.69c1.06-0.65,2.28-0.98,3.68-0.98h0.42
		c2.21,0,3.9,0.75,5.07,2.25c1.16,1.5,1.75,3.6,1.75,6.31v11.09H368V60.39c0-3.63-1.32-5.45-3.95-5.45h-0.38
		c-1.31,0-2.42,0.4-3.33,1.21c-0.92,0.81-1.6,1.82-2.04,3.05v11.82H354.45z"/>
	<path fill="#262F36" d="M385.34,71.48c-1.84,0-3.46-0.42-4.85-1.27c-1.39-0.84-2.47-2.02-3.24-3.53c-0.77-1.51-1.16-3.26-1.16-5.24
		s0.39-3.73,1.16-5.25c0.77-1.52,1.85-2.7,3.24-3.55c1.39-0.85,3-1.28,4.85-1.28h0.42c1.68,0,3.15,0.41,4.42,1.24
		c1.27,0.83,2.27,2.01,2.98,3.57s1.08,3.43,1.08,5.61v1.17h-14.18c0.23,1.57,0.82,2.81,1.78,3.71c0.95,0.9,2.2,1.35,3.73,1.35h0.38
		c0.92,0,1.8-0.19,2.65-0.57c0.84-0.38,1.55-0.89,2.13-1.53l2.36,2.5c-0.87,0.93-1.94,1.68-3.21,2.23
		c-1.27,0.55-2.65,0.83-4.12,0.83H385.34z M385.23,54.82c-1.37,0-2.51,0.45-3.43,1.35c-0.91,0.9-1.49,2.13-1.74,3.69h10.33
		c-0.12-1.42-0.58-2.62-1.39-3.59c-0.81-0.97-1.94-1.46-3.39-1.46H385.23z"/>
	<path fill="#262F36" d="M398.74,71.02V51.83h3.84v2.92c1.28-2.25,3.04-3.38,5.28-3.38c0.61,0,1.17,0.05,1.67,0.15v3.88
		c-0.31-0.04-0.64-0.07-0.99-0.1s-0.69-0.04-1.03-0.04c-1.27,0-2.3,0.36-3.11,1.09c-0.81,0.73-1.41,1.73-1.82,2.99v11.67H398.74z"/>
	<path fill="#262F36" d="M421.44,71.48c-1.84,0-3.46-0.42-4.85-1.27c-1.39-0.84-2.47-2.02-3.24-3.53c-0.77-1.51-1.16-3.26-1.16-5.24
		s0.39-3.73,1.16-5.25c0.77-1.52,1.85-2.7,3.24-3.55c1.39-0.85,3-1.28,4.85-1.28h0.42c1.68,0,3.15,0.41,4.42,1.24
		c1.27,0.83,2.27,2.01,2.98,3.57s1.08,3.43,1.08,5.61v1.17h-14.18c0.23,1.57,0.82,2.81,1.78,3.71c0.95,0.9,2.2,1.35,3.73,1.35h0.38
		c0.92,0,1.8-0.19,2.65-0.57c0.84-0.38,1.55-0.89,2.13-1.53l2.36,2.5c-0.87,0.93-1.94,1.68-3.21,2.23
		c-1.27,0.55-2.65,0.83-4.12,0.83H421.44z M421.33,54.82c-1.37,0-2.51,0.45-3.43,1.35c-0.91,0.9-1.49,2.13-1.74,3.69h10.32
		c-0.12-1.42-0.58-2.62-1.39-3.59c-0.81-0.97-1.94-1.46-3.39-1.46H421.33z"/>
	<path fill="#262F36" d="M434.72,71.48c-0.83,0-1.51-0.26-2.02-0.79c-0.52-0.52-0.78-1.2-0.78-2.02c0-0.83,0.26-1.51,0.78-2.02
		c0.52-0.52,1.19-0.78,2.02-0.78s1.51,0.26,2.02,0.78c0.52,0.52,0.78,1.19,0.78,2.02c0,0.82-0.26,1.49-0.78,2.02
		C436.23,71.22,435.56,71.48,434.72,71.48z"/>
</g>
</svg>
