<?xml version="1.0" encoding="utf-8"?>
<!-- Generator: Adobe Illustrator 26.5.0, SVG Export Plug-In . SVG Version: 6.00 Build 0)  -->
<svg version="1.0" id="Type" xmlns="http://www.w3.org/2000/svg" xmlns:xlink="http://www.w3.org/1999/xlink" x="0px" y="0px"
	 viewBox="0 0 325.86 154.34" enable-background="new 0 0 325.86 154.34" xml:space="preserve">
<g>
	<path fill="#0064E0" d="M248.69,154.34H77.17C34.55,154.34,0,119.79,0,77.17v0C0,34.55,34.55,0,77.17,0l171.52,0
		c42.62,0,77.17,34.55,77.17,77.17v0C325.86,119.79,291.31,154.34,248.69,154.34z"/>
	<g>
		<path fill="#FFFFFF" d="M39.61,115.75v-77h13.75L80.31,86l26.79-47.25h13.75v77h-11.22V54.81L85.54,97.27H74.92L50.83,55.09v60.67
			H39.61z"/>
		<path fill="#FFFFFF" d="M158.68,117.07c-5.28,0-9.91-1.21-13.89-3.63c-3.98-2.42-7.08-5.79-9.29-10.12
			c-2.22-4.33-3.33-9.33-3.33-15.02c0-5.68,1.11-10.7,3.33-15.04c2.22-4.34,5.32-7.74,9.29-10.17c3.98-2.44,8.61-3.66,13.89-3.66
			h1.21c4.8,0,9.03,1.18,12.68,3.55c3.65,2.36,6.5,5.77,8.55,10.23c2.05,4.46,3.08,9.82,3.08,16.09v3.36h-40.64
			c0.66,4.51,2.36,8.06,5.09,10.64c2.73,2.58,6.3,3.88,10.7,3.88h1.1c2.64,0,5.17-0.54,7.59-1.62c2.42-1.08,4.46-2.54,6.11-4.37
			l6.76,7.15c-2.49,2.68-5.56,4.8-9.21,6.38c-3.65,1.58-7.58,2.37-11.8,2.37H158.68z M158.35,69.33c-3.92,0-7.2,1.29-9.82,3.88
			c-2.62,2.59-4.28,6.12-4.98,10.59h29.59c-0.33-4.07-1.66-7.5-3.99-10.29c-2.33-2.79-5.56-4.18-9.71-4.18H158.35z"/>
		<path fill="#FFFFFF" d="M220.17,116.47c-6.53,0-11.5-1.65-14.91-4.95c-3.41-3.3-5.12-8.38-5.12-15.24V70.32h-10.78v-9.57h10.78
			V44.36h11v16.39h18.54v9.57h-18.54V94.8c0,4.33,0.9,7.33,2.69,9.02c1.8,1.69,4.46,2.53,7.98,2.53c1.69,0,3.2-0.07,4.54-0.22
			c1.34-0.15,2.72-0.33,4.15-0.55v9.62c-1.47,0.37-3.12,0.67-4.95,0.91C223.73,116.35,221.93,116.47,220.17,116.47z"/>
		<path fill="#FFFFFF" d="M255.7,116.85c-5.79,0-10.29-1.49-13.5-4.48c-3.21-2.99-4.81-6.92-4.81-11.8c0-4.84,1.8-8.89,5.42-12.16
			c3.61-3.26,9.38-4.9,17.3-4.9h14.96v-0.16c0-9.24-4.25-13.86-12.76-13.86c-3.56,0-6.55,0.64-8.99,1.92
			c-2.44,1.28-4.41,3.08-5.91,5.39l-7.54-6.11c2.35-3.63,5.44-6.42,9.27-8.36c3.83-1.94,8.19-2.92,13.06-2.92h1.21
			c6.75,0,12.17,1.94,16.28,5.83c4.11,3.89,6.16,9.7,6.16,17.44v33.05h-10.56v-8.96c-2.13,3.23-4.86,5.71-8.2,7.45
			S259.96,116.85,255.7,116.85z M258.12,107.06c4.25,0,7.79-0.96,10.62-2.89c2.82-1.92,4.93-4.54,6.32-7.84v-4.18h-14.52
			c-4.33,0-7.42,0.69-9.27,2.06s-2.78,3.24-2.78,5.58C248.5,104.64,251.71,107.06,258.12,107.06z"/>
	</g>
</g>
</svg>
