<?xml version="1.0" encoding="utf-8"?>
<!-- Generator: Adobe Illustrator 26.5.0, SVG Export Plug-In . SVG Version: 6.00 Build 0)  -->
<svg version="1.0" id="Camada_1" xmlns="http://www.w3.org/2000/svg" xmlns:xlink="http://www.w3.org/1999/xlink" x="0px" y="0px"
	 viewBox="0 0 114.36 25" enable-background="new 0 0 114.36 25" xml:space="preserve">
<g>
	<path d="M36.54,18V7.5h1.27v9.3h5.72V18H36.54z M48.36,18.17c-0.71,0-1.33-0.16-1.87-0.49c-0.53-0.32-0.95-0.78-1.25-1.36
		c-0.29-0.59-0.44-1.27-0.44-2.04c0-0.76,0.15-1.43,0.44-2.02c0.3-0.59,0.71-1.05,1.23-1.38c0.53-0.34,1.14-0.5,1.84-0.5h0.14
		c0.66,0,1.24,0.16,1.73,0.49c0.49,0.32,0.87,0.78,1.13,1.38c0.27,0.59,0.4,1.29,0.4,2.1v0.4h-5.7c0.08,0.72,0.33,1.28,0.75,1.7
		c0.43,0.42,0.98,0.63,1.65,0.63h0.13c0.4,0,0.77-0.08,1.11-0.24c0.35-0.16,0.64-0.38,0.87-0.66l0.76,0.77
		c-0.33,0.38-0.73,0.67-1.21,0.89s-1,0.32-1.57,0.32H48.36z M48.28,11.44c-0.62,0-1.13,0.21-1.54,0.63c-0.4,0.42-0.65,0.99-0.73,1.7
		h4.5c-0.03-0.66-0.23-1.21-0.6-1.66c-0.36-0.45-0.86-0.67-1.5-0.67H48.28z M55.65,18.14c-0.78,0-1.4-0.2-1.83-0.59
		c-0.43-0.39-0.65-0.92-0.65-1.59c0-0.65,0.24-1.18,0.72-1.61c0.49-0.43,1.26-0.64,2.33-0.64h2.17v-0.16c0-1.39-0.64-2.09-1.91-2.09
		c-0.52,0-0.96,0.1-1.31,0.28c-0.35,0.19-0.63,0.46-0.85,0.81l-0.83-0.63c0.3-0.5,0.7-0.88,1.21-1.15c0.51-0.27,1.1-0.4,1.76-0.4
		h0.15c0.91,0,1.62,0.26,2.15,0.79c0.53,0.52,0.8,1.29,0.8,2.31V18h-1.15v-1.39c-0.28,0.49-0.66,0.86-1.13,1.13
		C56.81,18.01,56.27,18.14,55.65,18.14z M55.87,17.08c0.64,0,1.17-0.15,1.59-0.46c0.42-0.32,0.73-0.74,0.94-1.28v-0.69h-2.12
		c-0.69,0-1.19,0.11-1.48,0.33c-0.28,0.22-0.43,0.52-0.43,0.9c0,0.38,0.12,0.67,0.38,0.89C55,16.98,55.37,17.08,55.87,17.08z
		 M61.85,18v-7.46h1.19v1.3c0.24-0.47,0.53-0.83,0.9-1.08c0.37-0.26,0.79-0.38,1.27-0.38c0.23,0,0.45,0.02,0.66,0.07v1.19
		c-0.11-0.02-0.24-0.03-0.38-0.04c-0.13-0.01-0.26-0.01-0.38-0.01c-0.54,0-0.99,0.17-1.33,0.5c-0.34,0.33-0.58,0.77-0.74,1.33V18
		H61.85z M67.42,18v-7.46h1.18v1.42c0.28-0.49,0.63-0.88,1.07-1.15c0.43-0.28,0.94-0.43,1.51-0.43h0.15c0.84,0,1.5,0.28,1.96,0.85
		c0.47,0.56,0.7,1.36,0.7,2.41V18H72.8v-4.2c0-0.77-0.14-1.35-0.43-1.74c-0.28-0.39-0.73-0.59-1.34-0.59h-0.14
		c-0.56,0-1.03,0.18-1.42,0.54c-0.39,0.36-0.68,0.81-0.86,1.36V18H67.42z M79.5,18v-7.46h1.18v1.39c0.27-0.48,0.61-0.86,1.04-1.13
		c0.42-0.28,0.91-0.42,1.46-0.42h0.15c1.24,0,2.04,0.59,2.39,1.78c0.29-0.55,0.65-0.99,1.11-1.31c0.46-0.32,0.99-0.48,1.58-0.48
		h0.16c0.84,0,1.48,0.28,1.92,0.85c0.45,0.56,0.67,1.36,0.67,2.41V18h-1.18v-4.2c0-1.55-0.57-2.32-1.7-2.32h-0.14
		c-0.54,0-1,0.18-1.38,0.53c-0.39,0.36-0.67,0.81-0.84,1.35V18h-1.18v-4.2c0-1.55-0.57-2.32-1.69-2.32H82.9
		c-0.54,0-1,0.18-1.38,0.53c-0.38,0.36-0.66,0.81-0.83,1.35V18H79.5z M96.65,18.17c-0.75,0-1.39-0.17-1.94-0.5
		c-0.54-0.34-0.97-0.8-1.27-1.38C93.15,15.7,93,15.03,93,14.27c0-0.76,0.15-1.43,0.44-2.02c0.3-0.59,0.72-1.05,1.27-1.38
		c0.55-0.34,1.19-0.5,1.94-0.5h0.15c0.75,0,1.39,0.17,1.94,0.5s0.96,0.8,1.26,1.38c0.3,0.59,0.45,1.26,0.45,2.02
		c0,0.76-0.15,1.43-0.45,2.01c-0.29,0.59-0.71,1.05-1.26,1.38c-0.54,0.33-1.19,0.5-1.94,0.5H96.65z M96.66,17.07h0.13
		c0.75,0,1.34-0.25,1.77-0.76s0.65-1.19,0.65-2.03c0-0.85-0.22-1.53-0.65-2.03c-0.43-0.51-1.03-0.76-1.77-0.76h-0.13
		c-0.75,0-1.33,0.25-1.77,0.76c-0.43,0.51-0.65,1.18-0.65,2.03c0,0.85,0.22,1.52,0.65,2.03C95.32,16.82,95.91,17.07,96.66,17.07z
		 M102.41,18v-7.46h1.18v1.3c0.24-0.47,0.53-0.83,0.9-1.08c0.36-0.26,0.79-0.38,1.27-0.38c0.23,0,0.45,0.02,0.66,0.07v1.19
		c-0.11-0.02-0.24-0.03-0.38-0.04c-0.13-0.01-0.26-0.01-0.38-0.01c-0.54,0-0.99,0.17-1.33,0.5c-0.33,0.33-0.58,0.77-0.74,1.33V18
		H102.41z M111.01,18.17c-0.71,0-1.33-0.16-1.87-0.49c-0.53-0.32-0.95-0.78-1.25-1.36c-0.29-0.59-0.44-1.27-0.44-2.04
		c0-0.76,0.15-1.43,0.44-2.02c0.29-0.59,0.71-1.05,1.23-1.38c0.53-0.34,1.14-0.5,1.84-0.5h0.14c0.66,0,1.24,0.16,1.72,0.49
		c0.49,0.32,0.87,0.78,1.13,1.38c0.27,0.59,0.4,1.29,0.4,2.1v0.4h-5.7c0.08,0.72,0.33,1.28,0.75,1.7c0.42,0.42,0.97,0.63,1.65,0.63
		h0.14c0.4,0,0.77-0.08,1.11-0.24c0.35-0.16,0.64-0.38,0.87-0.66l0.76,0.77c-0.32,0.38-0.73,0.67-1.21,0.89
		c-0.48,0.22-1,0.32-1.57,0.32H111.01z M110.93,11.44c-0.62,0-1.13,0.21-1.54,0.63c-0.41,0.42-0.65,0.99-0.73,1.7h4.5
		c-0.03-0.66-0.24-1.21-0.6-1.66c-0.36-0.45-0.86-0.67-1.5-0.67H110.93z"/>
	<g>
		<g>
			<circle fill="none" stroke="#1C2B33" cx="12.5" cy="12.5" r="12"/>
			<path d="M17.85,12.85c0.2-0.2,0.2-0.51,0-0.71l-3.18-3.18c-0.2-0.2-0.51-0.2-0.71,0c-0.2,0.2-0.2,0.51,0,0.71l2.83,2.83
				l-2.83,2.83c-0.2,0.2-0.2,0.51,0,0.71c0.2,0.2,0.51,0.2,0.71,0L17.85,12.85z M7.5,13h10v-1h-10V13z"/>
		</g>
	</g>
</g>
</svg>
