<?xml version="1.0" encoding="utf-8"?>
<!-- Generator: Adobe Illustrator 26.5.0, SVG Export Plug-In . SVG Version: 6.00 Build 0)  -->
<svg version="1.0" id="Type" xmlns="http://www.w3.org/2000/svg" xmlns:xlink="http://www.w3.org/1999/xlink" x="0px" y="0px"
	 viewBox="0 0 251.13 78.32" enable-background="new 0 0 251.13 78.32" xml:space="preserve">
<g>
	<path fill="#1C2B33" d="M0,77V0h13.75L40.7,47.24L67.49,0h13.75v77H70.02V16.06L45.93,58.52H35.31L11.22,16.33V77H0z"/>
	<path fill="#1C2B33" d="M119.07,78.32c-5.28,0-9.91-1.21-13.89-3.63s-7.08-5.79-9.29-10.12c-2.22-4.33-3.33-9.33-3.33-15.01
		s1.11-10.7,3.33-15.04c2.22-4.34,5.32-7.74,9.29-10.17s8.61-3.66,13.89-3.66h1.21c4.8,0,9.03,1.18,12.68,3.55
		c3.65,2.37,6.5,5.78,8.55,10.23s3.08,9.82,3.08,16.09v3.35h-40.65c0.66,4.51,2.36,8.06,5.09,10.64s6.3,3.88,10.7,3.88h1.1
		c2.64,0,5.17-0.54,7.59-1.62c2.42-1.08,4.46-2.54,6.1-4.37l6.77,7.15c-2.49,2.68-5.56,4.8-9.21,6.38s-7.58,2.36-11.8,2.36H119.07z
		 M118.75,30.58c-3.92,0-7.2,1.29-9.82,3.88c-2.62,2.58-4.28,6.11-4.98,10.59h29.59c-0.33-4.07-1.66-7.5-3.99-10.29
		c-2.33-2.79-5.56-4.18-9.71-4.18H118.75z"/>
	<path fill="#1C2B33" d="M179.3,78.32c-5.28,0-9.91-1.21-13.89-3.63s-7.08-5.79-9.29-10.12c-2.22-4.33-3.33-9.33-3.33-15.01
		s1.11-10.7,3.33-15.04c2.22-4.34,5.32-7.74,9.29-10.17s8.61-3.66,13.89-3.66h1.21c4.8,0,9.03,1.18,12.68,3.55s6.5,5.78,8.55,10.23
		c2.05,4.46,3.08,9.82,3.08,16.09v3.35h-40.65c0.66,4.51,2.36,8.06,5.09,10.64s6.3,3.88,10.7,3.88h1.1c2.64,0,5.17-0.54,7.59-1.62
		c2.42-1.08,4.46-2.54,6.1-4.37l6.76,7.15c-2.49,2.68-5.56,4.8-9.21,6.38c-3.65,1.58-7.58,2.36-11.8,2.36H179.3z M178.97,30.58
		c-3.92,0-7.2,1.29-9.82,3.88s-4.28,6.11-4.98,10.59h29.59c-0.33-4.07-1.66-7.5-3.99-10.29c-2.33-2.79-5.56-4.18-9.71-4.18H178.97z"
		/>
	<path fill="#1C2B33" d="M240.79,77.71c-6.53,0-11.5-1.65-14.91-4.95s-5.12-8.38-5.12-15.24V31.57h-10.78V22h10.78V5.61h11V22h18.54
		v9.57h-18.54v24.48c0,4.33,0.9,7.33,2.7,9.02c1.8,1.69,4.46,2.53,7.97,2.53c1.69,0,3.2-0.07,4.54-0.22
		c1.34-0.15,2.72-0.33,4.15-0.55v9.62c-1.47,0.37-3.12,0.67-4.95,0.91C244.35,77.6,242.55,77.71,240.79,77.71z"/>
</g>
</svg>
